# xmcd
#
# Track frame offsets:
# 150
# 17438
# 32726
# 51080
# 69665
# 92132
# 113703
# 133627
# 151074
# 175067
# 182034
# 204481
# 226381
# 248064
# 267942
# 285585
# 300368
# 322063
# 336152
#
# Disc length: 4769 seconds
#
# Revision: 0
# Processed by: cddbd v1.4PL0 Copyright (c) Steve Scherf et al.
# Submitted via: Axialis_AX_CDPlayer 2.6
#
DISCID=00129f13
DTITLE=Jaheim - Still Ghetto
DYEAR=1900
DGENRE=
TTITLE0=Intro
TTITLE1=Diamond In Da Ruff
TTITLE2=Fabulous
TTITLE3=Let's Talk About It
TTITLE4=Put That Woman First
TTITLE5=Beauty And Thug
TTITLE6=Me And My Bitch
TTITLE7=Backtight
TTITLE8=Special Day
TTITLE9=Long As I Live
TTITLE10=Interlude
TTITLE11=Everywhere I Am
TTITLE12=Tight Jeans
TTITLE13=Whut You Want
TTITLE14=Every Which Way
TTITLE15=Still Ghetto
TTITLE16=Video
TTITLE17=Hidden Track
TTITLE18=Hidden Track
EXTD=
EXTT0=
EXTT1=
EXTT2=
EXTT3=
EXTT4=
EXTT5=
EXTT6=
EXTT7=
EXTT8=
EXTT9=
EXTT10=
EXTT11=
EXTT12=
EXTT13=
EXTT14=
EXTT15=
EXTT16=
EXTT17=
EXTT18=
PLAYORDER=
